<?xml version="1.0" encoding="UTF-8" standalone="no"?>
<!-- Created with Inkscape (http://www.inkscape.org/) -->
<svg
   xmlns:dc="http://purl.org/dc/elements/1.1/"
   xmlns:cc="http://web.resource.org/cc/"
   xmlns:rdf="http://www.w3.org/1999/02/22-rdf-syntax-ns#"
   xmlns:svg="http://www.w3.org/2000/svg"
   xmlns="http://www.w3.org/2000/svg"
   xmlns:xlink="http://www.w3.org/1999/xlink"
   xmlns:sodipodi="http://sodipodi.sourceforge.net/DTD/sodipodi-0.dtd"
   xmlns:inkscape="http://www.inkscape.org/namespaces/inkscape"
   width="48"
   height="48"
   id="svg2249"
   sodipodi:version="0.32"
   inkscape:version="0.45"
   version="1.0"
   sodipodi:docbase="/home/brian/Designs"
   sodipodi:docname="linkage.svg"
   inkscape:output_extension="org.inkscape.output.svg.inkscape"
   sodipodi:modified="true">
  <defs
     id="defs2251">
    <linearGradient
       id="linearGradient16658">
      <stop
         style="stop-color:#fafafa;stop-opacity:1;"
         offset="0"
         id="stop16660" />
      <stop
         style="stop-color:#3465a4;stop-opacity:0;"
         offset="1"
         id="stop16662" />
    </linearGradient>
    <radialGradient
       inkscape:collect="always"
       xlink:href="#linearGradient16658"
       id="radialGradient2319"
       gradientUnits="userSpaceOnUse"
       gradientTransform="matrix(3.0118883,0,0,2.9576092,-82.275288,-64.162736)"
       cx="31.636837"
       cy="25.748985"
       fx="31.636837"
       fy="25.748985"
       r="13.138572" />
  </defs>
  <sodipodi:namedview
     id="base"
     pagecolor="#ffffff"
     bordercolor="#666666"
     borderopacity="1.0"
     gridtolerance="10000"
     guidetolerance="10"
     objecttolerance="10"
     inkscape:pageopacity="0.0"
     inkscape:pageshadow="2"
     inkscape:zoom="8.4791667"
     inkscape:cx="24.117936"
     inkscape:cy="23.807135"
     inkscape:document-units="px"
     inkscape:current-layer="layer2"
     width="48px"
     height="48px"
     inkscape:window-width="872"
     inkscape:window-height="627"
     inkscape:window-x="0"
     inkscape:window-y="50" />
  <metadata
     id="metadata2254">
    <rdf:RDF>
      <cc:Work
         rdf:about="">
        <dc:format>image/svg+xml</dc:format>
        <dc:type
           rdf:resource="http://purl.org/dc/dcmitype/StillImage" />
        <dc:creator>
          <cc:Agent>
            <dc:title>Brian Davis</dc:title>
          </cc:Agent>
        </dc:creator>
        <cc:license
           rdf:resource="http://creativecommons.org/licenses/by-sa/2.5/" />
        <dc:title>Linkage</dc:title>
        <dc:subject>
          <rdf:Bag>
            <rdf:li>linkage</rdf:li>
            <rdf:li>torrent</rdf:li>
            <rdf:li>bittorrent</rdf:li>
          </rdf:Bag>
        </dc:subject>
      </cc:Work>
      <cc:License
         rdf:about="http://creativecommons.org/licenses/by-sa/2.5/">
        <cc:permits
           rdf:resource="http://web.resource.org/cc/Reproduction" />
        <cc:permits
           rdf:resource="http://web.resource.org/cc/Distribution" />
        <cc:requires
           rdf:resource="http://web.resource.org/cc/Notice" />
        <cc:requires
           rdf:resource="http://web.resource.org/cc/Attribution" />
        <cc:permits
           rdf:resource="http://web.resource.org/cc/DerivativeWorks" />
        <cc:requires
           rdf:resource="http://web.resource.org/cc/ShareAlike" />
      </cc:License>
    </rdf:RDF>
  </metadata>
  <g
     inkscape:label="base"
     inkscape:groupmode="layer"
     id="layer1"
     style="display:inline">
    <path
       id="path21511"
       style="fill:#3465a4;fill-opacity:1;stroke:#18304e;stroke-width:1;stroke-linecap:butt;stroke-linejoin:round;stroke-miterlimit:4;stroke-dasharray:none;stroke-opacity:1;display:inline"
       d="M 25.110033,5.0525493 L 17.503691,12.78021 C 17.503691,12.78021 34.391954,14.796668 24.707871,24.673467 C 14.930758,34.645145 12.674644,17.705355 12.674644,17.705355 L 5.022845,25.539474 L 11.488346,31.92892 C 11.488346,31.92892 -5.4504604,34.167832 4.5317225,43.954891 C 14.515265,53.743281 16.418391,36.762596 16.418391,36.762596 L 22.56345,42.737209 L 30.199217,34.887371 C 30.199217,34.887371 31.993556,52.298124 42.232442,41.855482 C 52.378266,31.507757 35.028264,29.962227 35.028264,29.962227 L 42.650636,22.250283 L 36.514988,16.266076 C 36.514988,16.266076 53.734628,14.302513 43.471603,4.2401033 C 33.30359,-5.7291523 31.58494,11.432401 31.58494,11.432401 L 25.110033,5.0525493 z "
       sodipodi:nodetypes="cczccczccczccczcc" />
  </g>
  <g
     inkscape:groupmode="layer"
     id="layer2"
     inkscape:label="highlight"
     style="display:inline">
    <path
       style="fill:none;fill-opacity:1;stroke:#fafafa;stroke-width:1;stroke-linecap:butt;stroke-linejoin:round;stroke-miterlimit:4;stroke-dasharray:none;stroke-opacity:0.81568627;display:inline"
       d="M 32.131093,13.116784 L 25.058042,6.3331176 L 19.495032,11.946843 C 19.495032,11.946843 35.763419,15.301686 25.207849,25.73745 C 15.576739,35.259247 12.110505,19.522499 12.110505,19.522499 L 6.1563347,25.529835 L 13.29274,32.494522 C 13.29274,32.494522 -4.103334,34.245159 5.1602101,43.287918 C 14.294349,52.204356 15.062142,36.470473 16.099501,35.406655 L 22.525054,41.538592 L 30.475577,33.3759 C 31.318831,34.256499 32.071031,51.400268 41.801301,41.174646 C 50.808182,31.709239 33.347163,30.357968 33.347163,30.357968 L 41.602095,22.289932 L 34.830612,15.79676 C 34.830612,15.79676 52.239936,14.025572 43.298379,5.559165 C 35.57937,-3.0931603 33.030854,6.8119304 32.131093,13.116784 z "
       id="path21528"
       sodipodi:nodetypes="cccscccscccsccccc" />
  </g>
  <g
     inkscape:groupmode="layer"
     id="layer3"
     inkscape:label="outline"
     sodipodi:insensitive="true">
    <path
       sodipodi:nodetypes="cczccczccczccczcc"
       d="M 25.110033,5.0525493 L 17.503691,12.78021 C 17.503691,12.78021 34.391954,14.796668 24.707871,24.673467 C 14.930758,34.645145 12.674644,17.705355 12.674644,17.705355 L 5.022845,25.539474 L 11.488346,31.92892 C 11.488346,31.92892 -5.4504604,34.167832 4.5317225,43.954891 C 14.515265,53.743281 16.418391,36.762596 16.418391,36.762596 L 22.56345,42.737209 L 30.199217,34.887371 C 30.199217,34.887371 31.993556,52.298124 42.232442,41.855482 C 52.378266,31.507757 35.028264,29.962227 35.028264,29.962227 L 42.650636,22.250283 L 36.514988,16.266076 C 36.514988,16.266076 53.734628,14.302513 43.471603,4.2401033 C 33.30359,-5.7291523 31.58494,11.432401 31.58494,11.432401 L 25.110033,5.0525493 z "
       style="fill:url(#radialGradient2319);fill-opacity:1;stroke:#18304e;stroke-width:1;stroke-linecap:butt;stroke-linejoin:round;stroke-miterlimit:4;stroke-dasharray:none;stroke-opacity:1;display:inline"
       id="path21513" />
  </g>
</svg>
